<?xml version="1.0" encoding="UTF-8" standalone="no"?>
<!DOCTYPE svg PUBLIC "-//W3C//DTD SVG 1.1//EN" "http://www.w3.org/Graphics/SVG/1.1/DTD/svg11.dtd">
<svg width="100%" height="100%" viewBox="0 0 240 192" version="1.1" xmlns="http://www.w3.org/2000/svg" xmlns:xlink="http://www.w3.org/1999/xlink" xml:space="preserve" xmlns:serif="http://www.serif.com/" style="fill-rule:evenodd;clip-rule:evenodd;stroke-linejoin:round;stroke-miterlimit:2;">
    <g transform="matrix(0.248523,0,0,0.248523,7.80598,218.056)">
        <clipPath id="_clip1">
            <rect x="-31.41" y="-877.408" width="965.706" height="772.565"/>
        </clipPath>
        <g clip-path="url(#_clip1)">
            <path d="M0,-733.849C-0.127,-733.478 -0.598,-732.999 -0.954,-732.967C-3.208,-732.766 -4.617,-734.065 -4.52,-736.03C-4.075,-736.464 -3.631,-736.898 -3.187,-737.332C-2.209,-736.615 -1.192,-735.9 -0.25,-735.091C0.014,-734.864 0.122,-734.206 0,-733.849M899.296,-731.297C903.451,-732.054 907.232,-733.756 910.847,-735.822C914.587,-737.96 918.262,-740.22 921.904,-742.523C924.736,-744.314 927.373,-746.412 930.715,-747.288C931.59,-747.517 932.465,-748.092 933.123,-748.732C934.414,-749.986 934.62,-751.774 933.839,-753.126C933.187,-754.255 931.865,-754.66 930.001,-754.263C929.536,-754.163 929.095,-753.953 928.636,-753.815C925.583,-752.894 922.554,-751.867 919.464,-751.085C913.04,-749.459 907.235,-746.517 901.58,-743.158C899.116,-741.693 896.466,-740.529 893.848,-739.346C893.452,-739.166 892.481,-739.473 892.287,-739.832C892.058,-740.256 892.171,-741.2 892.512,-741.53C893.299,-742.291 894.255,-742.936 895.244,-743.421C903.186,-747.321 910.037,-752.904 917.381,-757.724C919.016,-758.796 920.435,-760.032 920.715,-762.17C919.527,-764.273 917.88,-765.185 915.548,-764.145C912.199,-762.652 908.78,-761.274 905.574,-759.514C901.539,-757.297 897.597,-754.882 893.586,-752.633C889.01,-750.068 884.125,-748.002 879.091,-746.386C875.872,-745.351 872.581,-744.761 869.192,-744.807C866.495,-744.844 865.01,-746.474 865.457,-749.11C865.634,-750.159 866.209,-751.169 866.734,-752.125C868.803,-755.901 871.191,-759.53 872.952,-763.442C874.678,-767.283 874.68,-771.516 873.945,-775.64C873.777,-776.58 872.776,-777.456 871.977,-778.154C871.709,-778.389 870.67,-778.168 870.35,-777.819C861.726,-768.398 858.146,-753.933 849.042,-743.983C839.519,-733.575 827.354,-725.54 813.917,-721.182C803.691,-717.865 792.85,-716.575 782.826,-712.689C777.856,-710.763 772.936,-708.169 767.606,-708.14C761.795,-708.109 756.085,-711.164 750.38,-710.058C746.168,-709.242 742.679,-706.267 738.566,-705.048C734.651,-703.888 730.468,-704.392 726.385,-704.319C717.036,-704.15 708.059,-700.919 698.981,-698.68C674.124,-692.547 648.118,-693.808 622.548,-695.107C613.54,-695.565 604.532,-696.023 595.523,-696.481C588.463,-696.84 581.219,-697.241 574.754,-700.1C569.149,-702.579 564.452,-706.775 558.914,-709.403C553.375,-712.031 546.128,-712.74 541.624,-708.582C538.724,-705.905 537.588,-701.793 534.975,-698.836C529.551,-692.698 519.946,-693.35 511.864,-694.681C502.816,-696.17 491.949,-699.609 490.209,-708.612C488.547,-717.215 495.738,-730.909 497.624,-739.496C500.756,-738.496 503.385,-739.21 504.922,-742.077C505.657,-743.446 506.152,-744.99 506.5,-746.513C508.136,-753.679 507.603,-760.792 505.969,-767.906C505.303,-770.804 504.596,-773.529 501.52,-774.896C501.353,-779.832 500.061,-784.534 501.448,-789.326C501.705,-790.211 501.559,-791.23 501.512,-792.183C501.451,-793.459 501.331,-794.735 501.188,-796.005C501.007,-797.62 501.458,-798.829 503.108,-799.416C503.86,-799.683 504.573,-800.057 505.311,-800.363C512.099,-803.181 518.882,-806.011 525.68,-808.805C530.557,-810.808 535.487,-812.687 540.321,-814.788C541.505,-815.303 543.213,-815.417 543.669,-817.449C537.946,-822.911 531.374,-827.472 525.208,-832.517C519.021,-837.579 512.739,-842.524 506.495,-847.515C500.254,-852.503 494.075,-857.571 487.745,-862.444C481.448,-867.292 475.983,-873.193 469.228,-877.408C437.251,-864.197 405.511,-851.084 373.777,-837.956C373.38,-837.792 373.065,-837.426 372.771,-837.199C372.789,-836.91 372.734,-836.689 372.818,-836.603C373.814,-835.578 374.819,-834.562 375.845,-833.567C378.479,-831.01 379.011,-826.274 376.722,-823.19C375.559,-821.624 375.278,-820.23 375.64,-818.331C376.237,-815.189 376.141,-812.014 375.514,-808.812C374.964,-806.005 374.846,-803.105 374.649,-800.239C374.474,-797.688 374.473,-795.126 374.359,-792.571C373.976,-783.949 373.512,-775.33 373.216,-766.706C373.106,-763.519 373.399,-760.321 373.47,-757.127C373.511,-755.249 373.478,-753.37 373.478,-751.531C379.002,-749.626 380.513,-749.596 385.525,-751.256C386.492,-753.995 386.475,-753.994 386.335,-755.849C386.143,-758.399 385.628,-760.987 385.883,-763.494C386.34,-767.99 385.979,-772.427 385.747,-776.894C385.34,-784.717 385.034,-792.545 384.737,-800.372C384.585,-804.385 384.128,-808.333 382.94,-812.189C382.615,-813.244 382.45,-814.391 382.459,-815.494C382.472,-817.072 383.058,-818.717 382.765,-820.209C382.438,-821.873 381.211,-823.345 380.745,-825.004C380.45,-826.051 379.56,-827.37 381.034,-828.676C381.667,-828.207 382.313,-827.799 382.878,-827.299C390.166,-820.841 397.455,-814.385 404.698,-807.878C405.356,-807.287 405.931,-806.412 406.15,-805.567C406.465,-804.349 406.49,-803.038 406.513,-801.765C406.607,-796.647 406.28,-791.49 406.815,-786.422C407.152,-783.23 406.978,-780.152 406.516,-777.107C406.081,-776.61 405.675,-776.087 405.326,-775.534C403.528,-772.684 402.976,-769.332 402.844,-766.012C402.716,-765.248 402.624,-764.48 402.584,-763.711C402.505,-762.18 402.609,-760.644 402.86,-759.132C402.958,-757.066 403.229,-755.017 403.86,-753.093C404.394,-750.511 405.448,-748.039 407.03,-745.959C407.696,-745.085 408.608,-744.27 409.622,-743.791C409.976,-743.432 410.272,-743.051 410.528,-742.655C410.833,-740.641 411.227,-738.642 411.709,-736.666C412.526,-723.387 429.498,-701.997 410.601,-694.312C404.521,-691.84 397.108,-693.136 391.672,-689.459C390.035,-688.352 388.614,-686.812 386.711,-686.282C379.933,-684.391 377.364,-695.163 371.59,-699.184C363.227,-705.007 353.054,-694.789 343.062,-692.789C334.363,-691.048 323.878,-695.494 317.252,-689.596C315.529,-688.061 314.322,-685.963 312.408,-684.673C305.186,-679.806 296.801,-689.481 288.201,-690.86C284.224,-691.497 280.222,-690.264 276.293,-689.377C262.136,-686.181 247.388,-687.435 232.962,-689.03C218.895,-690.585 204.864,-692.447 190.834,-694.309C183.985,-695.219 177.136,-696.128 170.287,-697.036C146.375,-700.21 122.448,-703.824 99.033,-709.724C94.239,-710.932 89.546,-712.545 84.823,-714.023C83.761,-714.355 82.709,-714.782 81.731,-715.309C78.075,-717.281 74.49,-719.389 70.802,-721.3C67.259,-723.137 64.793,-725.894 62.809,-729.313C59.839,-734.428 57.013,-739.597 54.73,-745.062C51.959,-751.696 49.004,-758.255 46.317,-764.922C44.347,-769.809 42.694,-774.824 40.866,-779.769C40.537,-780.66 40.132,-781.55 39.604,-782.334C38.862,-783.436 37.17,-783.628 36.207,-782.768C34.992,-781.683 34.203,-780.389 33.847,-778.72C32.991,-774.699 33.049,-770.706 34.477,-766.899C35.787,-763.405 36.219,-759.806 36.767,-756.177C37.414,-751.894 36.442,-747.994 34.806,-744.273C34.321,-744.094 34.016,-743.866 33.736,-743.894C27.655,-744.516 21.884,-746.18 16.521,-749.147C10.255,-752.614 3.961,-756.026 -2.12,-759.823C-4.839,-761.522 -7.493,-763.255 -9.852,-765.448C-12.145,-767.58 -15,-768.622 -18.037,-769.138C-19.447,-769.377 -20.401,-768.104 -20.128,-766.707C-19.761,-764.831 -18.536,-763.615 -17.134,-762.522C-9.823,-756.825 -2.502,-751.14 4.82,-745.458C6.078,-744.482 7.396,-743.58 8.604,-742.547C8.838,-742.346 8.857,-741.594 8.67,-741.277C8.469,-740.937 7.892,-740.609 7.507,-740.639C6.905,-740.686 6.255,-740.935 5.752,-741.282C4.953,-741.831 4.168,-742.401 3.383,-742.972C4.007,-743.416 4.392,-744.3 4.149,-745.047C3.65,-746.584 1.729,-746.978 0.325,-747.024C-0.423,-747.049 -1.167,-746.958 -1.889,-746.785C-7.646,-750.926 -13.387,-755.09 -19.207,-759.14C-21.693,-760.869 -24.387,-762.311 -27.059,-763.75C-27.661,-764.074 -28.698,-764.111 -29.306,-763.812C-31.525,-762.723 -32.1,-759.944 -30.493,-758.205C-29.523,-757.156 -28.386,-756.245 -27.246,-755.375C-25.852,-754.311 -24.287,-753.46 -22.952,-752.332C-18.864,-748.878 -14.837,-745.342 -10.633,-741.696C-11.335,-740.945 -11.951,-740.12 -12.476,-739.234C-12.485,-739.225 -12.495,-739.218 -12.504,-739.209C-13.935,-740.427 -15.074,-741.57 -16.38,-742.468C-18.741,-744.09 -21.193,-745.579 -23.625,-747.094C-24.502,-747.639 -25.424,-747.729 -26.282,-747.006C-27.177,-746.252 -27.721,-745.412 -27.564,-744.109C-27.358,-742.394 -26.531,-741.159 -25.263,-740.073C-22.111,-737.373 -19.001,-734.625 -15.728,-731.767C-16.638,-728.641 -15.414,-725.932 -13.89,-723.221C-12.883,-721.429 -12.179,-719.461 -11.39,-717.551C-10.875,-716.303 -10.066,-715.431 -8.81,-714.882C-7.82,-714.449 -6.846,-713.993 -5.884,-713.515C-4.998,-712.731 -4.077,-711.995 -3.128,-711.319C-0.997,-709.797 1.268,-708.48 3.599,-707.289C5.581,-705.585 7.688,-704.097 10.554,-703.974C10.73,-703.967 10.905,-703.937 11.079,-703.897C11.615,-703.677 12.151,-703.457 12.689,-703.244C13.153,-703.005 13.617,-702.754 14.087,-702.567C15.123,-702.155 16.149,-701.62 17.23,-701.433C17.448,-701.395 17.666,-701.354 17.884,-701.316C19.919,-700.609 21.968,-699.94 24.034,-699.328C33.738,-696.447 43.714,-694.574 53.74,-693.234C56.693,-692.84 59.652,-692.501 62.614,-692.187C63.084,-691.964 63.496,-691.675 63.709,-691.319C70.486,-680.023 80.897,-682.913 81.418,-666.093L84.458,-567.947C84.549,-565.007 84.872,-561.619 87.294,-559.951C88.796,-558.917 90.736,-558.84 92.559,-558.8C163.735,-557.226 234.908,-555.517 306.081,-553.821C323.055,-553.42 316.354,-530.349 316.345,-518.653C316.339,-511.776 316.547,-504.898 316.473,-498.022C316.206,-473.078 315.791,-448.136 315.566,-423.191C315.392,-403.837 315.42,-384.481 315.358,-365.126C315.355,-364.326 315.359,-363.526 315.351,-362.726C315.094,-337.302 314.795,-311.877 314.592,-286.452C314.418,-264.858 314.348,-243.265 314.245,-221.671C314.156,-203.117 314.063,-184.563 314.014,-166.009C313.974,-151.131 313.993,-136.253 313.992,-121.375C313.991,-99.139 313.989,-76.902 314.012,-54.665C314.014,-52.944 313.721,-51.158 314.646,-49.289C320.361,-47.044 326.139,-44.75 331.942,-42.523C332.818,-42.187 333.808,-42.083 334.756,-42.013C339.059,-41.69 343.369,-41.458 347.67,-41.116C350.536,-40.889 353.411,-40.648 356.249,-40.202C359.57,-39.681 361.599,-37.181 361.53,-33.9C361.482,-31.663 361.319,-29.428 361.189,-27.192C360.569,-16.505 359.928,-5.819 359.327,4.869C359.04,9.961 358.825,15.058 358.584,20.006C355.895,22.584 354.208,25.435 352.982,28.622C352.484,29.917 351.66,31.19 350.684,32.175C348.16,34.72 346.454,37.783 344.832,40.898C344.263,41.989 343.988,43.281 343.796,44.516C343.042,49.364 345.072,53.219 348.303,56.6C349.78,58.147 351.425,59.291 353.735,59.186C354.969,59.129 356.323,58.998 357.242,60.237C357.414,63.727 357.202,67.306 357.857,70.718C358.68,75 357.131,78.591 355.435,82.143C353.653,85.874 351.506,89.441 349.371,92.99C346.174,98.304 343.333,103.853 339.223,108.579C337.833,110.178 336.859,112.015 337.046,114.245C337.23,116.437 336.374,118.245 335.278,120.088C334.312,121.711 333.492,123.513 333.062,125.342C332.687,126.937 332.444,128.526 332.56,130.045C333.509,131.518 334.268,133.102 335.153,134.613C336.262,136.509 337.665,138.141 339.567,139.276C341.639,140.514 344.024,141.243 346.34,141.872C348.45,142.444 350.59,142.897 352.738,143.307C356.648,143.479 360.567,143.559 364.504,143.435C370.77,143.239 376.305,141.783 381.918,139.159C386.445,137.044 389.872,134.275 392.625,130.136C394.437,127.413 395.828,125.044 394.157,121.863C394.012,121.588 393.945,121.251 393.918,120.937C393.76,119.068 394.308,117.478 395.817,116.281C397.541,114.915 399.368,114.139 401.577,115.124C403.258,115.874 404.753,115.359 405.957,114.145C407.061,113.028 408.161,111.845 408.968,110.513C409.957,108.881 410.742,107.103 411.415,105.314C411.854,104.146 412.203,102.829 412.13,101.607C411.885,97.468 411.558,93.325 411.031,89.214C410.275,83.318 409.809,77.512 411.311,71.604C412.613,66.481 412.306,66.428 410.553,61.388C409.46,58.247 408.513,55.056 407.464,51.775C408.415,51.225 409.049,50.61 409.768,50.484C412.602,49.989 413.64,47.947 414.369,45.542C415.223,42.723 415.33,39.874 414.708,37.01C414.049,33.984 414.19,31 414.794,27.975C416.17,21.079 417.46,14.167 418.745,7.255C419.562,2.86 420.077,-1.507 419.604,-6.05C418.759,-14.152 418.353,-22.301 417.818,-30.434C417.747,-31.525 417.836,-32.679 418.122,-33.73C418.823,-36.312 420.778,-37.733 423.459,-37.566C427.443,-37.318 431.418,-36.934 435.397,-36.61C436.352,-36.532 437.342,-36.257 438.256,-36.416C443.604,-37.348 448.938,-38.362 454.268,-39.397C455.536,-39.643 456.095,-40.598 456.138,-41.847C456.181,-43.125 456.185,-44.405 456.213,-45.683C456.344,-51.599 456.473,-57.514 456.616,-63.428C456.639,-64.385 456.628,-65.359 456.803,-66.294C457.468,-69.852 459.031,-71.186 462.658,-71.401C463.136,-71.431 463.617,-71.424 464.096,-71.424C471.773,-71.431 479.45,-71.444 487.126,-71.433C488.242,-71.432 489.381,-71.44 490.467,-71.227C492.521,-70.824 493.939,-69.637 494.302,-67.467C494.751,-64.788 495.484,-62.11 495.532,-59.422C495.631,-53.788 496.532,-48.31 497.759,-42.84C498.492,-39.575 498.956,-36.244 499.411,-32.926C499.952,-28.978 500.509,-25.046 501.691,-21.224C502.802,-17.635 502.927,-14.003 501.999,-10.341C501.725,-9.264 501.579,-8.155 501.357,-7.065C500.977,-5.199 500.765,-3.273 500.156,-1.485C498.875,2.279 496.806,5.784 496.641,9.907C496.618,10.492 496.06,11.037 495.863,11.638C495.518,12.691 495.092,13.757 495.002,14.843C494.779,17.548 494.647,20.268 494.625,22.982C494.606,25.505 495.727,26.845 498.106,27.363C498.88,27.531 499.7,27.476 500.493,27.575C502.84,27.87 504.514,29.243 504.715,31.509C505.081,35.607 505.136,39.826 503.557,43.686C502.68,45.828 502.227,47.887 502.13,50.144C501.952,54.29 501.581,58.427 501.407,62.572C501.273,65.766 501.301,68.966 501.292,72.163C501.288,74 501.875,75.473 503.437,76.703C505.292,78.163 506.001,80.312 505.851,82.696C505.761,84.13 505.935,85.645 505.522,86.979C504.832,89.208 505.472,91.077 506.484,92.935C507.551,94.895 508.671,96.826 509.797,98.753C512.061,102.625 514.691,105.925 519.914,105.123C520.375,105.052 520.868,105.155 521.344,105.196C523.012,105.34 524.376,105.945 525.42,107.372C526.275,108.54 527.155,109.61 527.464,111.1C527.687,112.173 527.998,113.409 528.704,114.17C532.69,118.47 535.731,123.628 540.699,127.061C542.512,128.315 544.233,128.981 546.429,128.958C555.858,128.859 565.29,128.802 574.717,128.901C577.529,128.932 580.159,128.405 582.528,127.104C586.154,125.112 589.691,122.93 593.107,120.597C595.757,118.786 596.785,113.89 595.177,111.115C592.867,107.126 590.375,103.241 587.924,99.335C587.504,98.666 586.991,97.991 586.366,97.527C582.235,94.465 578.768,90.713 575.204,87.05C572.856,84.639 570.62,82.181 568.944,79.233C566.108,74.24 563.12,69.341 560.097,64.457C556.674,58.924 555.623,52.537 556.351,45.995C556.62,43.579 557.442,41.359 559.356,39.647C560.304,38.799 561.078,37.757 561.934,36.808C564.879,33.541 565.64,29.806 564.121,25.7C562.268,20.695 562.858,15.619 563.674,10.585C564.153,7.63 565.179,4.764 565.871,2.192C564.979,-0.021 563.714,-1.315 562.244,-2.632C557.948,-6.478 555.555,-11.167 557.267,-17.147C557.969,-19.6 558.502,-22.147 559.57,-24.437C560.52,-26.475 560.974,-28.591 560.184,-30.459C558.306,-34.896 557.569,-39.626 556.147,-44.171C556.1,-44.322 555.99,-44.455 555.953,-44.608C555.765,-45.378 555.436,-46.152 555.44,-46.924C555.44,-60.27 554.311,-64.357 567.307,-67.498C580.469,-70.679 594.524,-71.782 607.907,-73.889C609.981,-74.216 612.244,-74.644 613.592,-76.254C614.86,-77.766 614.965,-79.905 615.01,-81.878C618.009,-213.234 614.413,-344.642 610.817,-475.984C610.235,-497.247 609.66,-518.51 609.071,-539.772C608.867,-547.137 606.1,-557.031 612.598,-561.844C618.106,-565.924 635.004,-563.662 641.782,-564.078C654.384,-564.851 666.984,-565.674 679.585,-566.469C693.146,-567.324 706.705,-568.195 720.267,-569.016C732.233,-569.741 744.206,-570.365 756.17,-571.113C769.092,-571.921 782.009,-572.816 794.927,-573.682C801.093,-574.096 824.348,-572.051 828.503,-576.29C832.846,-580.722 828.767,-599.835 828.467,-606.1L825.192,-674.548C825.034,-677.838 824.889,-681.221 825.951,-684.34C828.597,-692.111 841.081,-695.223 848.174,-695.671C853.917,-696.035 859.59,-696.93 865.186,-698.395C870.282,-699.729 875.467,-700.717 880.61,-701.876C886.525,-703.21 892.557,-704.055 898.257,-706.28C901.378,-707.498 904.641,-708.374 907.706,-709.712C911.665,-711.44 915.406,-713.625 918.765,-716.374C919.604,-717.061 920.273,-717.989 920.903,-718.888C921.296,-719.448 920.692,-720.68 920.038,-720.85C918.091,-721.359 916.168,-721.272 914.538,-720.038C911.644,-717.851 908.189,-717.031 904.849,-716.03C901.957,-715.163 898.917,-714.778 895.93,-714.241C894.931,-714.06 893.583,-714.807 893.603,-715.459C893.638,-716.658 894.609,-717.048 895.536,-717.263C897.559,-717.731 899.654,-717.932 901.639,-718.515C904.535,-719.364 907.541,-720.116 910.175,-721.518C914.399,-723.766 918.463,-726.361 922.391,-729.1C925.258,-731.099 927.934,-733.428 930.439,-735.872C932.315,-737.702 931.188,-740.583 928.617,-740.867C926.542,-741.096 924.528,-740.927 922.715,-739.525C918.647,-736.378 914.013,-734.187 909.459,-731.848C906.286,-730.218 902.944,-729.245 899.504,-728.502C898.74,-728.337 897.929,-728.334 897.143,-728.356C896.896,-728.363 896.471,-728.679 896.455,-728.88C896.419,-729.312 896.452,-729.994 896.715,-730.16C897.507,-730.656 898.391,-731.132 899.296,-731.297" style="fill-rule:nonzero;"/>
        </g>
    </g>
</svg>
