<?xml version="1.0" encoding="UTF-8" standalone="no"?>
<!DOCTYPE svg PUBLIC "-//W3C//DTD SVG 1.1//EN" "http://www.w3.org/Graphics/SVG/1.1/DTD/svg11.dtd">
<svg width="100%" height="100%" viewBox="0 0 240 192" version="1.1" xmlns="http://www.w3.org/2000/svg" xmlns:xlink="http://www.w3.org/1999/xlink" xml:space="preserve" xmlns:serif="http://www.serif.com/" style="fill-rule:evenodd;clip-rule:evenodd;stroke-linejoin:round;stroke-miterlimit:2;">
    <g transform="matrix(1.09538,0,0,1.09538,80.7007,81.8433)">
        <g transform="matrix(1,0,0,1,-99.6429,-118.214)">
            <g transform="matrix(1,0,0,1,536.79,-547.01)">
                <path d="M-454.95,742.43C-454.357,733.381 -454.453,732.464 -455.937,733.034C-456.957,733.425 -457.814,733.056 -458.196,732.061C-458.859,730.332 -463.597,729.803 -463.597,731.457C-463.597,732.007 -464.221,732.457 -464.984,732.457C-467.251,732.457 -467.358,727.439 -465.511,707.675C-463.613,687.366 -461.969,677.903 -457.921,663.973C-456.48,659.014 -455.123,652.482 -454.906,649.457L-454.511,643.957L-456.533,646.457C-458.503,648.892 -459.786,652.104 -461.026,657.707C-462.082,662.477 -463.315,660.718 -464.5,652.751C-465.874,643.511 -468.197,641.2 -472.143,645.145C-474.133,647.136 -473.734,653.053 -471.083,660.852C-469.694,664.938 -469.615,666.448 -470.603,669.977C-471.254,672.303 -471.937,676.85 -472.12,680.081C-472.303,683.312 -472.485,686.236 -472.525,686.578C-472.565,686.919 -474.948,687.511 -477.822,687.892C-480.696,688.273 -483.64,689.077 -484.365,689.678C-486.719,691.632 -487.614,689.11 -488.017,679.392C-488.232,674.203 -488.732,668.494 -489.128,666.706C-489.71,664.078 -489.536,663.456 -488.222,663.456C-487.328,663.456 -486.597,662.943 -486.597,662.316C-486.597,660.798 -482.301,652.047 -481.347,651.623C-480.935,651.439 -480.597,650.837 -480.597,650.283C-480.597,649.296 -477.306,645.329 -472.847,640.941C-471.61,639.723 -470.597,638.028 -470.597,637.173C-470.597,633.436 -469.412,632.456 -464.894,632.456C-460.76,632.456 -454.597,629.981 -454.597,628.32C-454.597,627.932 -453.226,627.314 -451.55,626.946C-448.586,626.295 -448.52,626.156 -449.154,621.928C-449.615,618.852 -449.337,616.64 -448.202,614.365C-447.319,612.596 -446.597,610.502 -446.597,609.712C-446.597,607.255 -441.213,600.624 -438.847,600.168C-437.479,599.904 -436.597,600.225 -436.597,600.988C-436.597,601.678 -435.991,602.475 -435.249,602.76C-433.613,603.387 -431.364,621.244 -432.241,626.645C-432.76,629.847 -432.501,630.458 -429.962,632.001C-428.387,632.959 -425.916,634.551 -424.471,635.538C-421.909,637.289 -417.598,637.165 -417.598,635.34C-417.598,634.854 -416.947,634.456 -416.152,634.456C-415.147,634.456 -414.614,635.848 -414.402,639.026C-414.145,642.877 -413.636,643.86 -411.164,645.276C-407.912,647.138 -404.196,650.035 -401.625,652.712C-400.537,653.844 -399.897,656.272 -399.823,659.554C-399.759,662.352 -399.047,665.648 -398.241,666.878C-396.099,670.147 -397.337,696.21 -399.598,695.456C-400.423,695.181 -404.135,694.971 -407.848,694.988C-411.806,695.007 -414.62,694.593 -414.652,693.988C-415.099,685.435 -414.551,668.04 -413.819,667.572C-412.57,666.772 -404.598,655.357 -404.598,654.368C-404.598,653.589 -408.743,649.308 -412.5,646.207C-417.59,642.005 -424.948,645.253 -427.722,652.927C-429.256,657.167 -430.347,657.414 -431.168,653.707C-433.739,642.092 -435.597,641.05 -435.597,651.222C-435.597,659.73 -432.692,671.337 -428.168,680.9C-426.811,683.767 -424.946,689.003 -424.023,692.536C-423.1,696.068 -421.729,700.37 -420.977,702.096C-420.132,704.035 -419.511,709.831 -419.353,717.27C-419.123,728.095 -419.304,729.583 -421.158,732.069C-422.291,733.588 -423.673,734.983 -424.228,735.168C-425.614,735.63 -428.782,732.558 -430.632,728.958C-432.713,724.908 -435.315,724.55 -436.615,728.135C-437.178,729.688 -438.104,731.875 -438.673,732.995C-439.469,734.562 -439.099,736.72 -437.074,742.334C-435.626,746.349 -434.633,749.827 -434.868,750.062C-435.103,750.297 -437.051,750.127 -439.196,749.685C-442.751,748.951 -443.12,748.573 -443.35,745.419C-443.786,739.467 -446.851,730.393 -448.774,729.364C-450.033,728.69 -450.597,728.734 -450.597,729.506C-450.597,731.724 -446.406,746.984 -445.495,748.081C-442.908,751.199 -448.472,754.086 -451.522,751.208C-452.582,750.208 -452.939,750.208 -453.306,751.208C-453.558,751.896 -454.179,752.458 -454.686,752.458C-455.23,752.458 -455.339,748.357 -454.95,742.431L-454.95,742.43ZM-448.941,744.188C-449.215,743.511 -449.422,744.307 -449.402,745.957C-449.382,747.607 -449.158,748.161 -448.904,747.188C-448.651,746.215 -448.667,744.865 -448.941,744.188ZM-455.426,722.802C-452.752,720.383 -453.165,717.903 -457.097,712.753L-460.597,708.169L-460.583,714.063C-460.56,724.08 -459.264,726.276 -455.426,722.802L-455.426,722.802ZM-443.084,715.435C-442.491,714.476 -447.752,702.534 -450.048,699.629C-453.661,695.057 -456.528,692.457 -457.956,692.457C-461.183,692.457 -459.672,695.954 -453.667,702.383C-451.979,704.19 -450.588,706.183 -450.575,706.813C-450.563,707.442 -449.685,709.869 -448.624,712.207C-446.782,716.265 -444.44,717.63 -443.084,715.435L-443.084,715.435ZM-432.843,710.664C-433.368,706.75 -442.238,687.457 -443.513,687.457C-443.907,687.457 -445.191,685.746 -446.367,683.654C-447.542,681.563 -449.425,679.018 -450.551,677.999C-451.937,676.745 -452.598,674.906 -452.598,672.302C-452.598,667.711 -453.889,667.331 -455.584,671.424C-456.55,673.755 -456.555,675.469 -455.606,679.424C-454.942,682.192 -453.94,684.457 -453.38,684.457C-449.928,684.457 -439.436,699.754 -436.577,708.957C-435.025,713.953 -434.735,714.457 -433.407,714.457C-432.742,714.457 -432.528,713.013 -432.843,710.664L-432.843,710.664ZM-462.993,696.728C-463.325,696.396 -463.561,696.986 -463.518,698.04C-463.47,699.205 -463.233,699.442 -462.914,698.644C-462.625,697.923 -462.661,697.06 -462.993,696.728L-462.993,696.728ZM-408.597,684.866C-408.597,684.709 -409.497,684.649 -410.597,684.732C-412.009,684.838 -412.597,685.599 -412.597,687.323L-412.597,689.763L-410.597,687.457C-409.497,686.188 -408.597,685.023 -408.597,684.866L-408.597,684.866ZM-436.16,678.426C-437.511,673.768 -439.245,668.607 -440.012,666.957C-441.346,664.086 -445.005,652.154 -445.838,647.957C-446.152,646.378 -446.603,646.798 -447.982,649.957C-450.976,656.816 -449.959,659.82 -437.086,682.127C-435.445,684.97 -434.012,687.207 -433.902,687.096C-433.792,686.986 -434.808,683.085 -436.159,678.427L-436.16,678.426ZM-480.597,684.016C-480.597,683.223 -481.047,682.297 -481.597,681.957C-482.147,681.617 -482.597,681.553 -482.597,681.816C-482.597,682.078 -482.87,683.005 -483.204,683.875C-483.602,684.913 -483.258,685.457 -482.204,685.457C-481.32,685.457 -480.597,684.808 -480.597,684.016L-480.597,684.016ZM-474.215,681.905C-473.874,681.015 -474.041,680.613 -474.608,680.964C-475.152,681.3 -475.597,681.998 -475.597,682.516C-475.597,683.954 -474.88,683.637 -474.215,681.905L-474.215,681.905ZM-482.989,679.707C-481.06,677.166 -481.305,675.457 -483.597,675.457C-486.215,675.457 -486.146,673.118 -483.418,669.428C-480.955,666.097 -481.195,665.277 -484.39,666.113C-486.414,666.642 -486.597,667.301 -486.597,674.073C-486.597,681.681 -485.631,683.188 -482.989,679.707L-482.989,679.707ZM-408.052,675.207C-407.486,672.891 -407.7,672.457 -409.405,672.457C-410.519,672.457 -411.657,671.894 -411.935,671.207C-412.212,670.519 -412.475,672.644 -412.518,675.929C-412.596,681.848 -412.58,681.884 -410.66,679.929C-409.595,678.844 -408.421,676.719 -408.052,675.207L-408.052,675.207ZM-481.216,671.905C-480.874,671.015 -481.042,670.613 -481.609,670.964C-482.153,671.3 -482.597,671.998 -482.597,672.516C-482.597,673.954 -481.881,673.637 -481.216,671.905L-481.216,671.905ZM-400.825,667.618C-399.812,666.975 -399.884,666.009 -401.18,662.884C-403.267,657.848 -403.133,657.937 -405.396,660.106C-407.986,662.589 -409.83,666.272 -409.085,667.477C-408.357,668.655 -402.612,668.753 -400.825,667.618L-400.825,667.618ZM-472.598,661.841C-472.598,659.692 -475.903,650.457 -476.672,650.457C-477.794,650.457 -483.359,657.13 -484.049,659.302C-484.594,661.02 -484.326,661.457 -482.724,661.457C-481.62,661.457 -480.438,661.907 -480.098,662.457C-479.758,663.007 -477.931,663.457 -476.039,663.457C-473.537,663.457 -472.598,663.016 -472.598,661.841L-472.598,661.841ZM-458.28,644.707C-455.66,640.913 -452.214,633.507 -452.798,632.923C-452.972,632.748 -454.942,633.093 -457.175,633.689C-460.026,634.45 -461.897,635.784 -463.461,638.169C-465.454,641.21 -465.557,641.927 -464.442,645.011C-462.846,649.422 -461.49,649.355 -458.28,644.706L-458.28,644.707ZM-425.988,645.652C-422.287,640.924 -422.319,639.205 -426.152,636.753C-428.149,635.476 -429.597,635.034 -429.597,635.703C-429.597,636.549 -429.917,636.537 -430.797,635.657C-433.682,632.772 -434.538,636.221 -432.509,642.558C-431.911,644.427 -431.25,646.519 -431.041,647.207C-430.428,649.22 -428.258,648.552 -425.988,645.652L-425.988,645.652ZM-437.318,625.418C-437.611,624.296 -438.075,623.601 -438.348,623.874C-438.889,624.415 -437.933,627.457 -437.222,627.457C-436.981,627.457 -437.024,626.539 -437.318,625.418L-437.318,625.418ZM-433.597,623.398C-433.597,621.781 -434.047,620.457 -434.597,620.457C-435.147,620.457 -435.597,622.059 -435.597,624.016C-435.597,626.134 -435.192,627.325 -434.597,626.957C-434.047,626.617 -433.597,625.016 -433.597,623.398ZM-446.935,618.207C-447.213,617.52 -447.44,618.082 -447.44,619.457C-447.44,620.832 -447.213,621.395 -446.935,620.707C-446.658,620.02 -446.658,618.895 -446.935,618.207ZM-442.069,619.489C-443.473,617.937 -443.752,616.34 -443.388,611.945C-443.131,608.848 -443.29,606.945 -443.746,607.664C-444.198,608.375 -444.574,611.297 -444.582,614.157C-444.594,618.066 -444.163,619.611 -442.847,620.377C-440.262,621.883 -440.085,621.681 -442.069,619.489L-442.069,619.489ZM-441.935,611.207C-442.213,610.52 -442.44,611.082 -442.44,612.457C-442.44,613.832 -442.213,614.395 -441.935,613.707C-441.658,613.02 -441.658,611.895 -441.935,611.207ZM-434.791,611.931C-435.098,611.623 -435.658,612.178 -436.033,613.164C-436.576,614.589 -436.461,614.704 -435.473,613.724C-434.79,613.045 -434.483,612.239 -434.791,611.931L-434.791,611.931Z" style="fill-rule:nonzero;"/>
            </g>
        </g>
    </g>
    <g transform="matrix(1.09538,0,0,1.09538,164.411,103.903)">
        <g transform="matrix(1,0,0,1,-69.0071,-93.1122)">
            <g transform="matrix(1,0,0,1,-196.84,-247.8)">
                <path d="M256.41,409.27C255.8,408.66 253.901,408.051 252.189,407.916C250.478,407.781 248.812,407.405 248.486,407.079C248.16,406.754 248.636,404.326 249.542,401.683C251.14,397.024 251.128,396.838 249.154,395.507C248.035,394.753 247.119,393.463 247.119,392.641C247.119,391.619 246.461,391.318 245.038,391.69C243.387,392.122 242.663,391.532 241.538,388.839C239.721,384.49 239.739,382.067 241.679,369.879C243.643,357.535 245.003,352.614 247.349,349.351C248.862,347.247 249.031,345.906 248.359,341.351C247.813,337.65 247.933,335.069 248.729,333.379C249.377,332.004 250.905,327.504 252.124,323.379C253.343,319.254 255.492,313.652 256.899,310.93C258.698,307.45 259.403,304.629 259.274,301.43C259.172,298.927 259.771,295.59 260.604,294.015C261.437,292.439 262.119,288.832 262.119,285.999C262.119,280.017 264.872,274.026 267.824,273.58C269.405,273.341 270.239,274.418 271.962,278.919C273.148,282.02 274.119,285.62 274.119,286.919C274.119,288.218 274.794,291.873 275.619,295.04C277.886,303.743 277.628,307.19 274.605,308.567C273.018,309.29 272.266,310.297 272.566,311.296C273.232,313.51 276.855,331.956 277.68,337.331C278.419,342.15 280.69,347.576 284.606,353.879C285.972,356.079 287.946,359.733 288.991,362C291.556,367.56 292.751,368.035 293.443,363.77C294.6,356.638 298.733,355.964 301.023,362.534C301.961,365.225 301.813,366.353 300.086,369.666C298.121,373.438 298.107,373.712 299.771,376.24C301.076,378.222 301.585,381.482 301.818,389.342C302.056,397.35 302.48,400.001 303.624,400.642C305.435,401.656 305.613,404.374 303.869,404.393C303.181,404.401 301.67,404.662 300.51,404.973C298.774,405.439 298.292,404.994 297.785,402.459C296.836,397.713 294.806,398.567 295.618,403.371C296.238,407.045 296.081,407.443 293.64,408.371C292.182,408.926 290.798,409.379 290.565,409.379C290.332,409.379 290.249,406.567 290.38,403.129L290.619,396.879L287.741,397.187C285.043,397.476 284.908,397.32 285.578,394.687C285.971,393.143 286.626,388.954 287.035,385.379C287.444,381.804 288.305,377.613 288.949,376.064C291.505,369.916 288.734,363.388 282.989,362.025C280.088,361.337 279.154,359.131 279.133,352.913C279.12,349.168 276.501,340.467 275.059,339.38C274.694,339.105 273.942,336.18 273.386,332.88L272.376,326.88L272.261,333.38C272.17,338.488 273.019,342.557 276.226,352.38C279.771,363.238 280.377,366.428 280.837,376.664C281.304,387.023 281.153,388.686 279.589,390.414C277.489,392.734 272.581,393.026 271.758,390.88C271.441,390.055 270.674,389.38 270.054,389.38C268.892,389.38 269.214,396.124 270.64,401.63C271.274,404.079 271.082,404.38 268.889,404.38C264.973,404.38 262.408,401.445 263.209,397.88C263.579,396.23 263.936,393.643 264.001,392.13C264.109,389.614 263.811,389.38 260.491,389.38L256.862,389.38L257.444,397.13C257.764,401.393 258.324,406.118 258.689,407.63C259.374,410.471 258.349,411.21 256.41,409.271L256.41,409.27ZM252.481,402.879C252.164,402.054 251.728,401.379 251.512,401.379C251.296,401.379 251.119,402.054 251.119,402.879C251.119,403.704 251.555,404.379 252.088,404.379C252.621,404.379 252.797,403.704 252.481,402.879ZM249.043,387.129C249.001,386.442 248.36,384.304 247.619,382.379L246.271,378.879L246.195,382.047C246.153,383.79 246.392,385.927 246.726,386.797C247.447,388.674 249.152,388.919 249.043,387.129L249.043,387.129ZM261.105,380.629C261.047,377.645 252.71,358.862 250.964,357.783C249.369,356.798 250.121,365.446 252.17,371.661C254.186,377.774 256.991,381.379 259.731,381.379C260.495,381.379 261.113,381.042 261.105,380.629L261.105,380.629ZM270.12,374.554C270.12,371.194 265.433,358.928 262.411,354.379C260.767,351.904 258.794,348.417 258.026,346.629C256.234,342.453 255.12,342.492 255.12,346.73C255.12,350.593 256.929,356.379 258.137,356.379C258.589,356.379 259.736,358.742 260.686,361.629C262.447,366.984 267.968,376.379 269.354,376.379C269.775,376.379 270.12,375.558 270.12,374.554L270.12,374.554ZM274.724,351.65C274.392,351.318 274.155,351.909 274.199,352.963C274.247,354.128 274.484,354.365 274.803,353.567C275.092,352.845 275.056,351.983 274.724,351.65L274.724,351.65ZM268.866,348.13C268.599,346.892 267.465,342.505 266.345,338.38C265.226,334.255 264.011,327.955 263.643,324.38C263.276,320.805 262.726,317.008 262.421,315.943C261.88,314.053 261.833,314.052 260.493,315.884C258.325,318.849 258.741,330.414 261.258,337.155C262.434,340.304 263.446,343.849 263.508,345.034C263.569,346.219 263.935,346.994 264.32,346.756C264.705,346.518 265.508,347.236 266.105,348.352C267.569,351.088 269.473,350.935 268.867,348.13L268.866,348.13ZM255.441,326.88C255.92,320.694 255.816,319.447 254.98,321.38C252.566,326.966 251.374,333.446 251.914,338.044L252.482,342.879L253.652,338.879C254.296,336.679 255.101,331.279 255.442,326.879L255.441,326.88ZM275.049,302.13C275.011,300.342 274.61,297.98 274.16,296.88C273.398,295.021 273.261,295.079 272.23,297.695C270.438,302.238 270.802,305.38 273.12,305.38C274.724,305.38 275.106,304.736 275.05,302.13L275.049,302.13ZM263.751,301.82C265.302,299.453 265.306,299.136 263.798,297.629C261.79,295.621 261.479,295.913 260.598,300.629C259.767,305.08 261.249,305.639 263.752,301.819L263.751,301.82ZM265.205,292.275C264.678,290.957 264.218,290.405 264.184,291.048C264.099,292.608 265.264,295.569 265.765,295.068C265.984,294.849 265.732,293.592 265.205,292.275L265.205,292.275ZM271.835,284.612C271.607,283.109 271.425,284.58 271.43,287.88C271.436,291.18 271.622,292.409 271.845,290.612C272.068,288.814 272.063,286.114 271.835,284.612Z" style="fill-rule:nonzero;"/>
            </g>
        </g>
    </g>
</svg>
