<?xml version="1.0" encoding="UTF-8" standalone="no"?>
<!DOCTYPE svg PUBLIC "-//W3C//DTD SVG 1.1//EN" "http://www.w3.org/Graphics/SVG/1.1/DTD/svg11.dtd">
<svg width="100%" height="100%" viewBox="0 0 240 192" version="1.1" xmlns="http://www.w3.org/2000/svg" xmlns:xlink="http://www.w3.org/1999/xlink" xml:space="preserve" xmlns:serif="http://www.serif.com/" style="fill-rule:evenodd;clip-rule:evenodd;stroke-linejoin:round;stroke-miterlimit:2;">
    <g transform="matrix(0.414355,0,0,0.414355,3.72368,-6.41738)">
        <g>
            <g id="XMLID_2_">
                <path d="M331.818,460.483C367.166,460.471 402.522,460.432 437.87,460.503C437.862,461.509 437.854,462.52 437.846,463.534C402.51,463.566 367.17,463.538 331.83,463.546C331.795,462.52 331.791,461.501 331.818,460.483Z" style="fill-rule:nonzero;"/>
                <path d="M331.806,453.661C345.29,453.61 430.328,453.619 437.874,453.669C437.862,454.691 437.858,455.713 437.85,456.739C402.51,456.691 367.166,456.684 331.826,456.743C331.791,455.713 331.795,454.683 331.806,453.661Z" style="fill-rule:nonzero;"/>
                <path d="M331.826,440C367.166,440.036 402.506,440.032 437.846,440C437.858,441.022 437.862,442.044 437.87,443.07C422.492,443.152 338.462,443.122 331.786,443.082C331.795,442.052 331.802,441.022 331.826,440Z" style="fill-rule:nonzero;"/>
                <path d="M331.767,446.858C345.445,446.791 434.081,446.692 437.902,446.878C437.854,447.876 437.854,448.883 437.894,449.893C422.551,450.003 339.398,449.979 331.775,449.889C331.802,448.875 331.802,447.865 331.767,446.858Z" style="fill-rule:nonzero;"/>
                <path d="M437.87,460.503C402.522,460.432 367.166,460.471 331.818,460.483C331.79,461.501 331.794,462.519 331.83,463.546C367.17,463.538 402.51,463.566 437.846,463.534C437.855,462.52 437.862,461.509 437.87,460.503ZM330.582,459.211C344.342,459.111 430.241,459.125 439.134,459.203C439.217,461.069 439.189,462.935 439.154,464.805C425.285,464.897 337.374,464.866 330.59,464.833C330.519,462.955 330.527,461.081 330.582,459.211Z" style="fill-rule:nonzero;"/>
                <path d="M439.122,451.196C402.954,451.192 366.782,451.251 330.61,451.164C330.507,449.306 330.515,447.448 330.602,445.598C366.782,445.606 402.962,445.598 439.142,445.598C439.202,447.46 439.225,449.33 439.122,451.196ZM331.767,446.858C331.803,447.864 331.803,448.875 331.775,449.889C339.591,449.981 422.933,450 437.894,449.893C437.854,448.883 437.854,447.876 437.902,446.878C434.051,446.691 345.628,446.79 331.767,446.858Z" style="fill-rule:nonzero;"/>
                <path d="M331.826,456.743C367.166,456.684 402.51,456.691 437.85,456.739C437.858,455.713 437.862,454.691 437.874,453.669C430.393,453.62 345.422,453.609 331.806,453.661C331.795,454.683 331.791,455.713 331.826,456.743ZM439.142,458.031C402.958,458.075 366.774,458.086 330.59,458.023C330.554,456.125 330.451,454.216 330.661,452.326C366.801,452.346 402.946,452.342 439.09,452.33C439.253,454.223 439.194,456.129 439.142,458.031Z" style="fill-rule:nonzero;"/>
                <path d="M330.578,438.78C366.774,438.76 402.97,438.744 439.166,438.788C439.19,440.642 439.202,442.5 439.142,444.358C425.521,444.445 339.266,444.427 330.582,444.37C330.527,442.504 330.535,440.642 330.578,438.78ZM331.787,443.083C338.847,443.126 422.656,443.152 437.871,443.071C437.863,442.045 437.859,441.023 437.847,440.001C402.507,440.033 367.167,440.037 331.827,440.001C331.802,441.022 331.795,442.052 331.787,443.083Z" style="fill-rule:nonzero;"/>
            </g>
            <path d="M331.822,433.162C367.17,433.146 402.514,433.122 437.862,433.174C437.858,434.212 437.858,435.25 437.862,436.296C422.986,436.354 338.746,436.339 331.814,436.3C331.791,435.25 331.795,434.204 331.822,433.162Z" style="fill-rule:nonzero;"/>
            <path d="M136.901,408.412C131.972,408.36 127.044,408.357 122.119,408.416C121.976,371.036 122.127,333.643 122.044,296.259C127.016,296.235 131.992,296.204 136.968,296.279C136.877,333.659 137.016,371.035 136.901,408.412Z" style="fill-rule:nonzero;"/>
            <path d="M274.462,47.392C294.684,47.67 324.346,48.24 324.346,48.24C331.841,66.565 324.776,80.784 321.192,84.119C311.359,82.615 274.117,77.983 271.296,77.891C272.094,75.965 274.252,72.727 274.157,65.237C274.803,52.134 274.009,52.88 274.462,47.392Z" style="fill-rule:nonzero;"/>
            <path d="M221.293,32.119C229.906,39.521 224.911,71.366 216.301,80.704C209.411,87.578 203.721,77.183 201.824,75.363C199.237,72.447 195.085,71.912 191.424,71.591C179.068,70.086 164.462,69.469 156.076,69.634C152.863,69.951 149.602,70.145 146.397,69.674C145.727,70.486 145.45,69.619 145.224,69.187L145.83,69.841C154.752,62.741 152.994,35.798 144.709,33.701C163.753,19.649 184.002,46.147 204.522,34.878C214.137,30.237 216.235,27.769 221.293,32.119Z" style="fill-rule:nonzero;"/>
            <path d="M149.583,43.474C152.922,59.199 145.877,76.159 140.138,65.415C131.955,48.638 143.857,20.802 149.583,43.474Z" style="fill-rule:nonzero;"/>
            <path d="M179.111,278.993C221.432,279.068 263.753,279.013 306.074,279.021C306.129,282.175 306.126,285.328 306.07,288.482C263.749,288.49 221.428,288.446 179.107,288.502C179.02,285.332 179.012,282.158 179.111,278.993Z" style="fill-rule:nonzero;"/>
            <path d="M279.826,215.012C239.584,215.029 206.384,215.21 206.384,215.21C206.389,214.869 204.106,147.798 204.106,147.798C243.122,144.496 268.783,146.883 276.672,146.847C276.747,147.3 279.802,214.738 279.826,215.012Z" style="fill-rule:nonzero;"/>
            <path d="M303.681,254.33C303.578,261.909 303.665,269.492 303.641,277.075C289.552,277.126 193.081,277.122 181.698,277.079C181.674,269.496 181.757,261.913 181.662,254.334C186.721,254.189 298.022,254.205 303.681,254.33Z" style="fill-rule:nonzero;"/>
            <path d="M280.104,240.475C257.473,238.906 253.822,235.778 199.273,240.606C198.79,234.548 199.015,228.463 198.532,222.409C200.258,222.457 274.797,223.167 285.797,223.419C285.686,229.239 285.793,235.063 285.745,240.883C283.867,240.665 281.954,240.923 280.104,240.475Z" style="fill-rule:nonzero;"/>
            <path d="M273.119,46.667C272.57,53.806 274.345,68.802 270.797,75.842C265.12,87.018 261.195,88.947 257.782,90.711C257.493,86.297 257.445,81.872 257.513,77.451C255.467,76.667 239.914,76.737 239.641,76.734C232.791,76.651 231.941,81.525 228.92,83.077C225.251,84.996 219.283,83.553 215.386,82.994C214.831,82.788 216.06,82.641 216.048,82.669C225.651,75.196 231.682,39.88 222.375,31.339C273.5,34.969 272.501,30.717 273.119,46.667Z" style="fill-rule:nonzero;"/>
            <path d="M303.78,252.915C263.083,252.895 222.387,253.002 181.69,252.943C181.738,250.007 181.646,247.064 181.745,244.128C274.008,236.215 233.121,241.092 272.088,241.287C272.088,241.287 303.414,243.949 303.736,243.949C303.796,246.937 303.808,249.924 303.78,252.915Z" style="fill-rule:nonzero;"/>
            <path d="M221.67,144.554C221.639,144.328 219.442,87.353 219.467,85.05C222.934,85.224 226.745,85.949 229.883,84.016C232.276,82.772 233.171,79.737 235.822,78.87C240.084,76.853 252.039,78.515 256.25,78.45C256.417,92.11 258.358,143.994 258.378,144.467C258.36,144.466 221.67,144.554 221.67,144.554Z" style="fill-rule:nonzero;"/>
            <path d="M281.094,217.175C282.425,218.871 283.951,220.4 285.262,222.112C236.302,221.342 210.506,221.364 199.725,221.221C207.295,215.691 205.052,216.714 207.585,216.574C225.132,216.817 278.904,215.115 281.094,217.175Z" style="fill-rule:nonzero;"/>
            <path d="M433.366,424.628C435.024,425.844 433.918,428.082 434.618,431.894C429.002,431.893 342.73,431.848 336.422,431.997C338.436,431.95 341.263,428.329 342.277,426.858C343.978,424.392 344.546,422.178 344.685,419.178C344.915,414.208 343.844,409.176 341.582,404.742C339.365,400.396 335.068,397.883 330.748,395.904C318.938,390.707 309.988,391.164 282.183,402.409C267.924,407.956 232.107,414.068 184.934,402.171C169.189,398.338 162.282,393.075 152.153,393.661C140.801,394.58 144.16,404.191 140.454,408.249C139.654,408.427 138.822,408.938 138.002,408.621C138.002,408.621 138.174,415.224 138.252,302.569C138.51,302.169 137.567,301.159 138.082,301.151C143.651,316.495 163.497,317.955 175.439,308.857C185.248,301.563 184.564,290.859 184.955,289.697C223.964,289.78 263,289.701 302.021,289.737C308.771,304.813 322.64,301.366 355.812,329.027C375.784,345.52 401.658,375.134 410.867,400.658C415.676,414.491 426.213,418.217 433.366,424.628Z" style="fill-rule:nonzero;"/>
        </g>
    </g>
</svg>
